<svg id="visual" viewBox="0 0 900 600" width="900" height="600" xmlns="http://www.w3.org/2000/svg" xmlns:xlink="http://www.w3.org/1999/xlink" version="1.1"><g stroke-width="1" stroke-linejoin="bevel"><path d="M484 282L630 228L508 184Z" fill="#0c2435" stroke="#0c2435"></path><path d="M484 282L598 313L630 228Z" fill="#205a7a" stroke="#205a7a"></path><path d="M718 322L665 189L630 228Z" fill="#297ea6" stroke="#297ea6"></path><path d="M630 228L606 109L508 184Z" fill="#081a28" stroke="#081a28"></path><path d="M484 282L590 373L598 313Z" fill="#297ea6" stroke="#297ea6"></path><path d="M598 313L718 322L630 228Z" fill="#205a7a" stroke="#205a7a"></path><path d="M606 109L482 120L508 184Z" fill="#19435d" stroke="#19435d"></path><path d="M366 187L377 305L484 282Z" fill="#1d4e6b" stroke="#1d4e6b"></path><path d="M665 189L606 109L630 228Z" fill="#112e42" stroke="#112e42"></path><path d="M484 282L516 419L590 373Z" fill="#297ea6" stroke="#297ea6"></path><path d="M703 429L718 322L590 373Z" fill="#1d4e6b" stroke="#1d4e6b"></path><path d="M590 373L718 322L598 313Z" fill="#19435d" stroke="#19435d"></path><path d="M366 187L484 282L508 184Z" fill="#277297" stroke="#277297"></path><path d="M484 282L399 427L516 419Z" fill="#112e42" stroke="#112e42"></path><path d="M482 120L366 187L508 184Z" fill="#15384f" stroke="#15384f"></path><path d="M765 187L687 84L665 189Z" fill="#297ea6" stroke="#297ea6"></path><path d="M665 189L687 84L606 109Z" fill="#205a7a" stroke="#205a7a"></path><path d="M527 0L436 61L482 120Z" fill="#297ea6" stroke="#297ea6"></path><path d="M718 322L768 288L665 189Z" fill="#277297" stroke="#277297"></path><path d="M768 288L765 187L665 189Z" fill="#15384f" stroke="#15384f"></path><path d="M527 0L482 120L606 109Z" fill="#277297" stroke="#277297"></path><path d="M482 120L436 61L366 187Z" fill="#0c2435" stroke="#0c2435"></path><path d="M316 117L330 193L366 187Z" fill="#277297" stroke="#277297"></path><path d="M366 187L330 193L377 305Z" fill="#246688" stroke="#246688"></path><path d="M622 488L703 429L590 373Z" fill="#246688" stroke="#246688"></path><path d="M718 322L815 363L768 288Z" fill="#277297" stroke="#277297"></path><path d="M377 305L399 427L484 282Z" fill="#1d4e6b" stroke="#1d4e6b"></path><path d="M516 419L622 488L590 373Z" fill="#205a7a" stroke="#205a7a"></path><path d="M314 313L399 427L377 305Z" fill="#246688" stroke="#246688"></path><path d="M399 427L505 484L516 419Z" fill="#15384f" stroke="#15384f"></path><path d="M607 0L527 0L606 109Z" fill="#1d4e6b" stroke="#1d4e6b"></path><path d="M330 193L314 313L377 305Z" fill="#19435d" stroke="#19435d"></path><path d="M505 484L622 488L516 419Z" fill="#297ea6" stroke="#297ea6"></path><path d="M687 84L607 0L606 109Z" fill="#277297" stroke="#277297"></path><path d="M765 187L779 127L687 84Z" fill="#112e42" stroke="#112e42"></path><path d="M687 84L680 0L607 0Z" fill="#0c2435" stroke="#0c2435"></path><path d="M900 227L779 127L765 187Z" fill="#00101c" stroke="#00101c"></path><path d="M436 61L316 117L366 187Z" fill="#00101c" stroke="#00101c"></path><path d="M236 321L270 374L314 313Z" fill="#112e42" stroke="#112e42"></path><path d="M361 0L316 117L436 61Z" fill="#205a7a" stroke="#205a7a"></path><path d="M813 0L680 0L687 84Z" fill="#00101c" stroke="#00101c"></path><path d="M792 490L815 363L703 429Z" fill="#15384f" stroke="#15384f"></path><path d="M703 429L815 363L718 322Z" fill="#297ea6" stroke="#297ea6"></path><path d="M768 288L900 227L765 187Z" fill="#19435d" stroke="#19435d"></path><path d="M399 427L395 513L505 484Z" fill="#277297" stroke="#277297"></path><path d="M505 484L599 600L622 488Z" fill="#19435d" stroke="#19435d"></path><path d="M271 501L395 513L399 427Z" fill="#112e42" stroke="#112e42"></path><path d="M236 321L314 313L330 193Z" fill="#081a28" stroke="#081a28"></path><path d="M314 313L270 374L399 427Z" fill="#205a7a" stroke="#205a7a"></path><path d="M527 0L361 0L436 61Z" fill="#205a7a" stroke="#205a7a"></path><path d="M622 488L737 512L703 429Z" fill="#00101c" stroke="#00101c"></path><path d="M599 600L737 512L622 488Z" fill="#205a7a" stroke="#205a7a"></path><path d="M195 178L236 321L330 193Z" fill="#205a7a" stroke="#205a7a"></path><path d="M228 109L330 193L316 117Z" fill="#205a7a" stroke="#205a7a"></path><path d="M361 0L337 0L316 117Z" fill="#00101c" stroke="#00101c"></path><path d="M737 512L792 490L703 429Z" fill="#297ea6" stroke="#297ea6"></path><path d="M900 409L900 266L815 363Z" fill="#1d4e6b" stroke="#1d4e6b"></path><path d="M815 363L900 266L768 288Z" fill="#19435d" stroke="#19435d"></path><path d="M779 127L813 0L687 84Z" fill="#112e42" stroke="#112e42"></path><path d="M900 266L900 227L768 288Z" fill="#246688" stroke="#246688"></path><path d="M234 0L228 109L316 117Z" fill="#112e42" stroke="#112e42"></path><path d="M485 600L599 600L505 484Z" fill="#00101c" stroke="#00101c"></path><path d="M737 512L776 600L792 490Z" fill="#246688" stroke="#246688"></path><path d="M900 107L813 0L779 127Z" fill="#205a7a" stroke="#205a7a"></path><path d="M395 513L485 600L505 484Z" fill="#15384f" stroke="#15384f"></path><path d="M228 109L195 178L330 193Z" fill="#112e42" stroke="#112e42"></path><path d="M900 227L900 107L779 127Z" fill="#19435d" stroke="#19435d"></path><path d="M270 374L271 501L399 427Z" fill="#1d4e6b" stroke="#1d4e6b"></path><path d="M395 513L385 600L485 600Z" fill="#00101c" stroke="#00101c"></path><path d="M202 425L271 501L270 374Z" fill="#246688" stroke="#246688"></path><path d="M202 425L270 374L236 321Z" fill="#277297" stroke="#277297"></path><path d="M792 490L900 409L815 363Z" fill="#15384f" stroke="#15384f"></path><path d="M274 600L385 600L395 513Z" fill="#19435d" stroke="#19435d"></path><path d="M110 406L202 425L236 321Z" fill="#277297" stroke="#277297"></path><path d="M599 600L738 600L737 512Z" fill="#19435d" stroke="#19435d"></path><path d="M792 490L900 464L900 409Z" fill="#00101c" stroke="#00101c"></path><path d="M228 109L136 162L195 178Z" fill="#0c2435" stroke="#0c2435"></path><path d="M337 0L234 0L316 117Z" fill="#081a28" stroke="#081a28"></path><path d="M900 600L900 464L792 490Z" fill="#081a28" stroke="#081a28"></path><path d="M738 600L776 600L737 512Z" fill="#297ea6" stroke="#297ea6"></path><path d="M900 107L900 0L813 0Z" fill="#00101c" stroke="#00101c"></path><path d="M73 104L136 162L228 109Z" fill="#297ea6" stroke="#297ea6"></path><path d="M195 178L112 289L236 321Z" fill="#1d4e6b" stroke="#1d4e6b"></path><path d="M136 162L112 289L195 178Z" fill="#0c2435" stroke="#0c2435"></path><path d="M196 600L274 600L271 501Z" fill="#081a28" stroke="#081a28"></path><path d="M271 501L274 600L395 513Z" fill="#112e42" stroke="#112e42"></path><path d="M180 510L271 501L202 425Z" fill="#19435d" stroke="#19435d"></path><path d="M129 501L180 510L202 425Z" fill="#1d4e6b" stroke="#1d4e6b"></path><path d="M112 289L110 406L236 321Z" fill="#205a7a" stroke="#205a7a"></path><path d="M776 600L900 600L792 490Z" fill="#112e42" stroke="#112e42"></path><path d="M110 406L129 501L202 425Z" fill="#0c2435" stroke="#0c2435"></path><path d="M180 510L196 600L271 501Z" fill="#112e42" stroke="#112e42"></path><path d="M234 0L73 104L228 109Z" fill="#297ea6" stroke="#297ea6"></path><path d="M0 195L0 287L112 289Z" fill="#0c2435" stroke="#0c2435"></path><path d="M112 289L0 287L110 406Z" fill="#081a28" stroke="#081a28"></path><path d="M129 501L196 600L180 510Z" fill="#246688" stroke="#246688"></path><path d="M234 0L68 0L73 104Z" fill="#297ea6" stroke="#297ea6"></path><path d="M110 406L0 475L129 501Z" fill="#0c2435" stroke="#0c2435"></path><path d="M0 195L112 289L136 162Z" fill="#277297" stroke="#277297"></path><path d="M0 195L136 162L73 104Z" fill="#1d4e6b" stroke="#1d4e6b"></path><path d="M0 93L0 195L73 104Z" fill="#15384f" stroke="#15384f"></path><path d="M68 0L0 93L73 104Z" fill="#081a28" stroke="#081a28"></path><path d="M0 287L0 429L110 406Z" fill="#277297" stroke="#277297"></path><path d="M129 501L82 600L196 600Z" fill="#297ea6" stroke="#297ea6"></path><path d="M0 475L82 600L129 501Z" fill="#00101c" stroke="#00101c"></path><path d="M0 429L0 475L110 406Z" fill="#277297" stroke="#277297"></path><path d="M68 0L0 0L0 93Z" fill="#15384f" stroke="#15384f"></path><path d="M0 475L0 600L82 600Z" fill="#15384f" stroke="#15384f"></path></g></svg>